<?xml version="1.0" encoding="UTF-8" standalone="no"?>
<svg xmlns="http://www.w3.org/2000/svg" width="400" height="150" viewBox="0 0 400 150">
  <!-- Guitar Body -->
  <path
    d="M50,75 C50,40 80,20 120,20 L300,20 C340,20 350,40 350,75 C350,110 340,130 300,130 L120,130 C80,130 50,110 50,75 Z"
    fill="#8D6E63" stroke="#5D4037" stroke-width="3"/>
  
  <!-- Sound Hole -->
  <circle cx="200" cy="75" r="25" fill="#3E2723" stroke="#5D4037" stroke-width="2"/>
  
  <!-- Fretboard -->
  <rect x="120" y="55" width="230" height="40" fill="#795548" stroke="#5D4037" stroke-width="2"/>
  
  <!-- Frets -->
  <line x1="150" y1="55" x2="150" y2="95" stroke="#E0E0E0" stroke-width="2"/>
  <line x1="180" y1="55" x2="180" y2="95" stroke="#E0E0E0" stroke-width="2"/>
  <line x1="210" y1="55" x2="210" y2="95" stroke="#E0E0E0" stroke-width="2"/>
  <line x1="240" y1="55" x2="240" y2="95" stroke="#E0E0E0" stroke-width="2"/>
  <line x1="270" y1="55" x2="270" y2="95" stroke="#E0E0E0" stroke-width="2"/>
  <line x1="300" y1="55" x2="300" y2="95" stroke="#E0E0E0" stroke-width="2"/>
  <line x1="330" y1="55" x2="330" y2="95" stroke="#E0E0E0" stroke-width="2"/>
  
  <!-- Strings -->
  <line x1="120" y1="60" x2="350" y2="60" stroke="#E0E0E0" stroke-width="1.5"/>
  <line x1="120" y1="67" x2="350" y2="67" stroke="#E0E0E0" stroke-width="1.5"/>
  <line x1="120" y1="75" x2="350" y2="75" stroke="#E0E0E0" stroke-width="1.5"/>
  <line x1="120" y1="83" x2="350" y2="83" stroke="#E0E0E0" stroke-width="1.5"/>
  <line x1="120" y1="90" x2="350" y2="90" stroke="#E0E0E0" stroke-width="1.5"/>
  
  <!-- Bridge -->
  <rect x="90" y="60" width="30" height="30" rx="5" fill="#5D4037" stroke="#3E2723" stroke-width="2"/>
  
  <!-- Headstock -->
  <path d="M350,55 L380,45 L380,105 L350,95 Z" fill="#5D4037" stroke="#3E2723" stroke-width="2"/>
  
  <!-- Tuning Pegs -->
  <circle cx="365" cy="55" r="3" fill="#E0E0E0" stroke="#3E2723" stroke-width="1"/>
  <circle cx="365" cy="65" r="3" fill="#E0E0E0" stroke="#3E2723" stroke-width="1"/>
  <circle cx="365" cy="75" r="3" fill="#E0E0E0" stroke="#3E2723" stroke-width="1"/>
  <circle cx="365" cy="85" r="3" fill="#E0E0E0" stroke="#3E2723" stroke-width="1"/>
  <circle cx="365" cy="95" r="3" fill="#E0E0E0" stroke="#3E2723" stroke-width="1"/>
  
  <!-- Fret Numbers -->
  <text x="135" y="48" font-family="Arial" font-size="8" fill="#E0E0E0">1</text>
  <text x="165" y="48" font-family="Arial" font-size="8" fill="#E0E0E0">2</text>
  <text x="195" y="48" font-family="Arial" font-size="8" fill="#E0E0E0">3</text>
  <text x="225" y="48" font-family="Arial" font-size="8" fill="#E0E0E0">4</text>
  <text x="255" y="48" font-family="Arial" font-size="8" fill="#E0E0E0">5</text>
  <text x="285" y="48" font-family="Arial" font-size="8" fill="#E0E0E0">6</text>
  <text x="315" y="48" font-family="Arial" font-size="8" fill="#E0E0E0">7</text>
</svg>